<svg width="32" height="32" viewBox="0 0 32 32" fill="none" xmlns="http://www.w3.org/2000/svg">
  <!-- Bell shape with notification dot -->
  <path d="M16 2C14.8954 2 14 2.89543 14 4V5.08579C10.7529 6.06242 8.5 8.98048 8.5 12.5V18.5C8.5 20.4891 7.71494 22.3968 6.31802 23.818C5.92127 24.2193 6.00692 24.8516 6.40825 25.2484C6.80958 25.6451 7.44189 25.5595 7.83864 25.1581C10.1191 22.8175 11.5 19.7941 11.5 16.5V12.5C11.5 9.73858 13.7386 7.5 16.5 7.5C19.2614 7.5 21.5 9.73858 21.5 12.5V16.5C21.5 19.7941 22.8809 22.8175 25.1614 25.1581C25.5581 25.5595 26.1904 25.6451 26.5918 25.2484C26.9931 24.8516 27.0787 24.2193 26.682 23.818C25.2851 22.3968 24.5 20.4891 24.5 18.5V12.5C24.5 8.98048 22.2471 6.06242 19 5.08579V4C19 2.89543 18.1046 2 17 2H16Z" fill="#2563eb"/>
  <path d="M14.5 26.5C14.5 27.8807 15.6193 29 17 29C18.3807 29 19.5 27.8807 19.5 26.5H14.5Z" fill="#2563eb"/>
  <!-- Notification dot -->
  <circle cx="23" cy="6" r="3" fill="#ef4444"/>
</svg>